<mxfile host="app.diagrams.net" modified="2024-03-05T17:35:11.880Z" agent="Mozilla/5.0 (Windows NT 10.0; Win64; x64) AppleWebKit/537.36 (KHTML, like Gecko) Chrome/122.0.0.0 Safari/537.36" etag="ki-kSAduVd_R_4rhf7yN" version="24.0.1" type="device">
  <diagram name="Page-1" id="58cdce13-f638-feb5-8d6f-7d28b1aa9fa0">
    <mxGraphModel dx="1136" dy="579" grid="1" gridSize="10" guides="1" tooltips="1" connect="1" arrows="1" fold="1" page="1" pageScale="1" pageWidth="1100" pageHeight="850" background="#FFFFFF" math="0" shadow="0">
      <root>
        <mxCell id="0" />
        <mxCell id="1" parent="0" />
        <mxCell id="LZaOQnH5_brjPvSna_9Y-72" style="edgeStyle=orthogonalEdgeStyle;rounded=0;orthogonalLoop=1;jettySize=auto;html=1;" parent="1" source="382b91b5511bd0f7-1" target="382b91b5511bd0f7-6" edge="1">
          <mxGeometry relative="1" as="geometry" />
        </mxCell>
        <mxCell id="382b91b5511bd0f7-1" value="" style="ellipse;html=1;shape=startState;fillColor=#000000;strokeColor=#ff0000;rounded=1;shadow=0;comic=0;labelBackgroundColor=none;fontFamily=Verdana;fontSize=12;fontColor=#000000;align=center;direction=south;" parent="1" vertex="1">
          <mxGeometry x="20" y="135" width="30" height="30" as="geometry" />
        </mxCell>
        <mxCell id="LZaOQnH5_brjPvSna_9Y-3" value="" style="edgeStyle=orthogonalEdgeStyle;rounded=0;orthogonalLoop=1;jettySize=auto;html=1;" parent="1" source="382b91b5511bd0f7-6" target="LZaOQnH5_brjPvSna_9Y-2" edge="1">
          <mxGeometry relative="1" as="geometry" />
        </mxCell>
        <mxCell id="382b91b5511bd0f7-6" value="Log in" style="rounded=1;whiteSpace=wrap;html=1;arcSize=24;fillColor=#ffffc0;strokeColor=#ff0000;shadow=0;comic=0;labelBackgroundColor=none;fontFamily=Verdana;fontSize=12;fontColor=#000000;align=center;" parent="1" vertex="1">
          <mxGeometry x="130" y="120" width="120" height="60" as="geometry" />
        </mxCell>
        <mxCell id="LZaOQnH5_brjPvSna_9Y-9" style="edgeStyle=orthogonalEdgeStyle;rounded=0;orthogonalLoop=1;jettySize=auto;html=1;entryX=0.5;entryY=0;entryDx=0;entryDy=0;" parent="1" source="LZaOQnH5_brjPvSna_9Y-1" target="382b91b5511bd0f7-6" edge="1">
          <mxGeometry relative="1" as="geometry" />
        </mxCell>
        <mxCell id="LZaOQnH5_brjPvSna_9Y-71" style="edgeStyle=orthogonalEdgeStyle;rounded=0;orthogonalLoop=1;jettySize=auto;html=1;" parent="1" source="LZaOQnH5_brjPvSna_9Y-1" target="LZaOQnH5_brjPvSna_9Y-70" edge="1">
          <mxGeometry relative="1" as="geometry" />
        </mxCell>
        <mxCell id="LZaOQnH5_brjPvSna_9Y-1" value="Log out" style="rounded=1;whiteSpace=wrap;html=1;arcSize=24;fillColor=#ffffc0;strokeColor=#ff0000;shadow=0;comic=0;labelBackgroundColor=none;fontFamily=Verdana;fontSize=12;fontColor=#000000;align=center;" parent="1" vertex="1">
          <mxGeometry x="520" y="40" width="120" height="60" as="geometry" />
        </mxCell>
        <mxCell id="LZaOQnH5_brjPvSna_9Y-4" style="edgeStyle=orthogonalEdgeStyle;rounded=0;orthogonalLoop=1;jettySize=auto;html=1;entryX=0.5;entryY=0;entryDx=0;entryDy=0;" parent="1" source="LZaOQnH5_brjPvSna_9Y-2" target="382b91b5511bd0f7-6" edge="1">
          <mxGeometry relative="1" as="geometry">
            <Array as="points">
              <mxPoint x="325" y="70" />
              <mxPoint x="190" y="70" />
            </Array>
          </mxGeometry>
        </mxCell>
        <mxCell id="LZaOQnH5_brjPvSna_9Y-5" value="Not validated" style="edgeLabel;html=1;align=center;verticalAlign=middle;resizable=0;points=[];" parent="LZaOQnH5_brjPvSna_9Y-4" vertex="1" connectable="0">
          <mxGeometry x="-0.7393" relative="1" as="geometry">
            <mxPoint x="35" y="2" as="offset" />
          </mxGeometry>
        </mxCell>
        <mxCell id="LZaOQnH5_brjPvSna_9Y-6" style="edgeStyle=orthogonalEdgeStyle;rounded=0;orthogonalLoop=1;jettySize=auto;html=1;entryX=0;entryY=0.5;entryDx=0;entryDy=0;" parent="1" source="LZaOQnH5_brjPvSna_9Y-2" target="LZaOQnH5_brjPvSna_9Y-10" edge="1">
          <mxGeometry relative="1" as="geometry">
            <mxPoint x="630" y="150" as="targetPoint" />
          </mxGeometry>
        </mxCell>
        <mxCell id="LZaOQnH5_brjPvSna_9Y-7" value="Validated" style="edgeLabel;html=1;align=center;verticalAlign=middle;resizable=0;points=[];" parent="LZaOQnH5_brjPvSna_9Y-6" vertex="1" connectable="0">
          <mxGeometry x="-0.251" y="1" relative="1" as="geometry">
            <mxPoint x="25" y="1" as="offset" />
          </mxGeometry>
        </mxCell>
        <mxCell id="LZaOQnH5_brjPvSna_9Y-2" value="" style="rhombus;whiteSpace=wrap;html=1;" parent="1" vertex="1">
          <mxGeometry x="300" y="130" width="50" height="40" as="geometry" />
        </mxCell>
        <mxCell id="LZaOQnH5_brjPvSna_9Y-12" value="" style="edgeStyle=orthogonalEdgeStyle;rounded=0;orthogonalLoop=1;jettySize=auto;html=1;" parent="1" source="LZaOQnH5_brjPvSna_9Y-10" target="LZaOQnH5_brjPvSna_9Y-11" edge="1">
          <mxGeometry relative="1" as="geometry" />
        </mxCell>
        <mxCell id="LZaOQnH5_brjPvSna_9Y-20" style="edgeStyle=orthogonalEdgeStyle;rounded=0;orthogonalLoop=1;jettySize=auto;html=1;entryX=1;entryY=0.5;entryDx=0;entryDy=0;" parent="1" source="LZaOQnH5_brjPvSna_9Y-10" target="LZaOQnH5_brjPvSna_9Y-1" edge="1">
          <mxGeometry relative="1" as="geometry" />
        </mxCell>
        <mxCell id="LZaOQnH5_brjPvSna_9Y-44" style="edgeStyle=orthogonalEdgeStyle;rounded=0;orthogonalLoop=1;jettySize=auto;html=1;exitX=0.25;exitY=1;exitDx=0;exitDy=0;" parent="1" source="LZaOQnH5_brjPvSna_9Y-10" target="LZaOQnH5_brjPvSna_9Y-43" edge="1">
          <mxGeometry relative="1" as="geometry">
            <Array as="points">
              <mxPoint x="650" y="180" />
              <mxPoint x="650" y="200" />
              <mxPoint x="490" y="200" />
            </Array>
          </mxGeometry>
        </mxCell>
        <mxCell id="LZaOQnH5_brjPvSna_9Y-10" value="Graph page" style="rounded=1;whiteSpace=wrap;html=1;arcSize=24;fillColor=#ffffc0;strokeColor=#ff0000;shadow=0;comic=0;labelBackgroundColor=none;fontFamily=Verdana;fontSize=12;fontColor=#000000;align=center;" parent="1" vertex="1">
          <mxGeometry x="630" y="120" width="120" height="60" as="geometry" />
        </mxCell>
        <mxCell id="LZaOQnH5_brjPvSna_9Y-14" value="" style="edgeStyle=orthogonalEdgeStyle;rounded=0;orthogonalLoop=1;jettySize=auto;html=1;entryX=0.5;entryY=0;entryDx=0;entryDy=0;" parent="1" source="LZaOQnH5_brjPvSna_9Y-11" target="LZaOQnH5_brjPvSna_9Y-15" edge="1">
          <mxGeometry relative="1" as="geometry">
            <mxPoint x="860" y="210" as="targetPoint" />
          </mxGeometry>
        </mxCell>
        <mxCell id="LZaOQnH5_brjPvSna_9Y-38" style="edgeStyle=orthogonalEdgeStyle;rounded=0;orthogonalLoop=1;jettySize=auto;html=1;exitX=0.5;exitY=0;exitDx=0;exitDy=0;" parent="1" source="LZaOQnH5_brjPvSna_9Y-11" edge="1">
          <mxGeometry relative="1" as="geometry">
            <mxPoint x="640" y="70" as="targetPoint" />
            <Array as="points">
              <mxPoint x="860" y="70" />
            </Array>
          </mxGeometry>
        </mxCell>
        <mxCell id="LZaOQnH5_brjPvSna_9Y-11" value="Apply filters /&lt;br&gt;request report" style="rounded=1;whiteSpace=wrap;html=1;arcSize=24;fillColor=#ffffc0;strokeColor=#ff0000;shadow=0;comic=0;labelBackgroundColor=none;fontFamily=Verdana;fontSize=12;fontColor=#000000;align=center;" parent="1" vertex="1">
          <mxGeometry x="800" y="120" width="120" height="60" as="geometry" />
        </mxCell>
        <mxCell id="LZaOQnH5_brjPvSna_9Y-16" style="edgeStyle=orthogonalEdgeStyle;rounded=0;orthogonalLoop=1;jettySize=auto;html=1;entryX=0.832;entryY=0.984;entryDx=0;entryDy=0;entryPerimeter=0;" parent="1" source="LZaOQnH5_brjPvSna_9Y-15" target="LZaOQnH5_brjPvSna_9Y-10" edge="1">
          <mxGeometry relative="1" as="geometry">
            <mxPoint x="720" y="180" as="targetPoint" />
            <Array as="points">
              <mxPoint x="730" y="230" />
              <mxPoint x="730" y="183" />
              <mxPoint x="730" y="183" />
            </Array>
          </mxGeometry>
        </mxCell>
        <mxCell id="LZaOQnH5_brjPvSna_9Y-17" value="No data set found" style="edgeLabel;html=1;align=center;verticalAlign=middle;resizable=0;points=[];" parent="LZaOQnH5_brjPvSna_9Y-16" vertex="1" connectable="0">
          <mxGeometry x="-0.5446" relative="1" as="geometry">
            <mxPoint x="-21" as="offset" />
          </mxGeometry>
        </mxCell>
        <mxCell id="LZaOQnH5_brjPvSna_9Y-18" value="" style="edgeStyle=orthogonalEdgeStyle;rounded=0;orthogonalLoop=1;jettySize=auto;html=1;entryX=0.5;entryY=0;entryDx=0;entryDy=0;" parent="1" source="LZaOQnH5_brjPvSna_9Y-15" target="LZaOQnH5_brjPvSna_9Y-23" edge="1">
          <mxGeometry relative="1" as="geometry">
            <mxPoint x="860" y="300" as="targetPoint" />
          </mxGeometry>
        </mxCell>
        <mxCell id="LZaOQnH5_brjPvSna_9Y-19" value="Dataset found" style="edgeLabel;html=1;align=center;verticalAlign=middle;resizable=0;points=[];" parent="LZaOQnH5_brjPvSna_9Y-18" vertex="1" connectable="0">
          <mxGeometry x="-0.1814" relative="1" as="geometry">
            <mxPoint as="offset" />
          </mxGeometry>
        </mxCell>
        <mxCell id="LZaOQnH5_brjPvSna_9Y-15" value="" style="rhombus;whiteSpace=wrap;html=1;" parent="1" vertex="1">
          <mxGeometry x="835" y="210" width="50" height="40" as="geometry" />
        </mxCell>
        <mxCell id="LZaOQnH5_brjPvSna_9Y-29" style="edgeStyle=orthogonalEdgeStyle;rounded=0;orthogonalLoop=1;jettySize=auto;html=1;entryX=0.5;entryY=0;entryDx=0;entryDy=0;entryPerimeter=0;exitX=0;exitY=0.5;exitDx=0;exitDy=0;" parent="1" source="LZaOQnH5_brjPvSna_9Y-23" target="LZaOQnH5_brjPvSna_9Y-24" edge="1">
          <mxGeometry relative="1" as="geometry">
            <mxPoint x="750.0000000000001" y="340" as="targetPoint" />
            <mxPoint x="848.6" y="320" as="sourcePoint" />
          </mxGeometry>
        </mxCell>
        <mxCell id="LZaOQnH5_brjPvSna_9Y-30" value="Language data NOT available" style="edgeLabel;html=1;align=center;verticalAlign=middle;resizable=0;points=[];" parent="LZaOQnH5_brjPvSna_9Y-29" vertex="1" connectable="0">
          <mxGeometry x="-0.3179" relative="1" as="geometry">
            <mxPoint x="-39" y="-10" as="offset" />
          </mxGeometry>
        </mxCell>
        <mxCell id="LZaOQnH5_brjPvSna_9Y-23" value="" style="rhombus;whiteSpace=wrap;html=1;" parent="1" vertex="1">
          <mxGeometry x="835" y="300" width="50" height="40" as="geometry" />
        </mxCell>
        <mxCell id="LZaOQnH5_brjPvSna_9Y-33" style="edgeStyle=orthogonalEdgeStyle;rounded=0;orthogonalLoop=1;jettySize=auto;html=1;entryX=0.5;entryY=0;entryDx=0;entryDy=0;" parent="1" source="LZaOQnH5_brjPvSna_9Y-24" target="LZaOQnH5_brjPvSna_9Y-35" edge="1">
          <mxGeometry relative="1" as="geometry">
            <mxPoint x="860" y="460" as="targetPoint" />
          </mxGeometry>
        </mxCell>
        <mxCell id="LZaOQnH5_brjPvSna_9Y-24" value="Output basic table" style="rounded=1;whiteSpace=wrap;html=1;arcSize=24;fillColor=#ffffc0;strokeColor=#ff0000;shadow=0;comic=0;labelBackgroundColor=none;fontFamily=Verdana;fontSize=12;fontColor=#000000;align=center;" parent="1" vertex="1">
          <mxGeometry x="720" y="360" width="120" height="60" as="geometry" />
        </mxCell>
        <mxCell id="LZaOQnH5_brjPvSna_9Y-34" style="edgeStyle=orthogonalEdgeStyle;rounded=0;orthogonalLoop=1;jettySize=auto;html=1;entryX=0.5;entryY=0;entryDx=0;entryDy=0;" parent="1" source="LZaOQnH5_brjPvSna_9Y-25" target="LZaOQnH5_brjPvSna_9Y-35" edge="1">
          <mxGeometry relative="1" as="geometry">
            <mxPoint x="860" y="470" as="targetPoint" />
          </mxGeometry>
        </mxCell>
        <mxCell id="LZaOQnH5_brjPvSna_9Y-25" value="Output table with language insights" style="rounded=1;whiteSpace=wrap;html=1;arcSize=24;fillColor=#ffffc0;strokeColor=#ff0000;shadow=0;comic=0;labelBackgroundColor=none;fontFamily=Verdana;fontSize=12;fontColor=#000000;align=center;" parent="1" vertex="1">
          <mxGeometry x="890" y="360" width="120" height="60" as="geometry" />
        </mxCell>
        <mxCell id="LZaOQnH5_brjPvSna_9Y-32" value="" style="group" parent="1" vertex="1" connectable="0">
          <mxGeometry x="970" y="310" as="geometry" />
        </mxCell>
        <mxCell id="LZaOQnH5_brjPvSna_9Y-27" style="edgeStyle=orthogonalEdgeStyle;rounded=0;orthogonalLoop=1;jettySize=auto;html=1;" parent="LZaOQnH5_brjPvSna_9Y-32" source="LZaOQnH5_brjPvSna_9Y-23" target="LZaOQnH5_brjPvSna_9Y-25" edge="1">
          <mxGeometry relative="1" as="geometry" />
        </mxCell>
        <mxCell id="LZaOQnH5_brjPvSna_9Y-31" value="Language data IS available" style="edgeLabel;html=1;align=center;verticalAlign=middle;resizable=0;points=[];" parent="LZaOQnH5_brjPvSna_9Y-32" vertex="1" connectable="0">
          <mxGeometry as="geometry" />
        </mxCell>
        <mxCell id="LZaOQnH5_brjPvSna_9Y-37" style="edgeStyle=orthogonalEdgeStyle;rounded=0;orthogonalLoop=1;jettySize=auto;html=1;entryX=1;entryY=0.5;entryDx=0;entryDy=0;" parent="1" source="LZaOQnH5_brjPvSna_9Y-35" target="LZaOQnH5_brjPvSna_9Y-1" edge="1">
          <mxGeometry relative="1" as="geometry">
            <Array as="points">
              <mxPoint x="1060" y="470" />
              <mxPoint x="1060" y="70" />
            </Array>
          </mxGeometry>
        </mxCell>
        <mxCell id="LZaOQnH5_brjPvSna_9Y-35" value="" style="rounded=1;whiteSpace=wrap;html=1;arcSize=0;" parent="1" vertex="1">
          <mxGeometry x="850" y="460" width="20" height="20" as="geometry" />
        </mxCell>
        <mxCell id="LZaOQnH5_brjPvSna_9Y-47" style="edgeStyle=orthogonalEdgeStyle;rounded=0;orthogonalLoop=1;jettySize=auto;html=1;exitX=0;exitY=0.5;exitDx=0;exitDy=0;" parent="1" source="LZaOQnH5_brjPvSna_9Y-43" target="LZaOQnH5_brjPvSna_9Y-46" edge="1">
          <mxGeometry relative="1" as="geometry">
            <Array as="points">
              <mxPoint x="420" y="230" />
              <mxPoint x="420" y="399.9999999999999" />
            </Array>
          </mxGeometry>
        </mxCell>
        <mxCell id="LZaOQnH5_brjPvSna_9Y-48" style="edgeStyle=orthogonalEdgeStyle;rounded=0;orthogonalLoop=1;jettySize=auto;html=1;exitX=0;exitY=0.5;exitDx=0;exitDy=0;entryX=0;entryY=0.5;entryDx=0;entryDy=0;" parent="1" source="LZaOQnH5_brjPvSna_9Y-43" target="LZaOQnH5_brjPvSna_9Y-45" edge="1">
          <mxGeometry relative="1" as="geometry">
            <Array as="points">
              <mxPoint x="420" y="230" />
              <mxPoint x="420" y="320" />
            </Array>
          </mxGeometry>
        </mxCell>
        <mxCell id="LZaOQnH5_brjPvSna_9Y-49" value="IF Admin" style="edgeLabel;html=1;align=center;verticalAlign=middle;resizable=0;points=[];" parent="LZaOQnH5_brjPvSna_9Y-48" vertex="1" connectable="0">
          <mxGeometry x="-0.8106" y="1" relative="1" as="geometry">
            <mxPoint y="9" as="offset" />
          </mxGeometry>
        </mxCell>
        <mxCell id="LZaOQnH5_brjPvSna_9Y-50" style="edgeStyle=orthogonalEdgeStyle;rounded=0;orthogonalLoop=1;jettySize=auto;html=1;entryX=0.362;entryY=1.017;entryDx=0;entryDy=0;entryPerimeter=0;" parent="1" source="LZaOQnH5_brjPvSna_9Y-43" target="LZaOQnH5_brjPvSna_9Y-10" edge="1">
          <mxGeometry relative="1" as="geometry">
            <mxPoint x="700" y="190" as="targetPoint" />
            <Array as="points">
              <mxPoint x="673" y="230" />
              <mxPoint x="673" y="181" />
            </Array>
          </mxGeometry>
        </mxCell>
        <mxCell id="LZaOQnH5_brjPvSna_9Y-51" value="If NOT Admin" style="edgeLabel;html=1;align=center;verticalAlign=middle;resizable=0;points=[];" parent="LZaOQnH5_brjPvSna_9Y-50" vertex="1" connectable="0">
          <mxGeometry x="-0.1586" relative="1" as="geometry">
            <mxPoint as="offset" />
          </mxGeometry>
        </mxCell>
        <mxCell id="LZaOQnH5_brjPvSna_9Y-43" value="" style="rhombus;whiteSpace=wrap;html=1;" parent="1" vertex="1">
          <mxGeometry x="465" y="210" width="50" height="40" as="geometry" />
        </mxCell>
        <mxCell id="LZaOQnH5_brjPvSna_9Y-54" value="" style="edgeStyle=orthogonalEdgeStyle;rounded=0;orthogonalLoop=1;jettySize=auto;html=1;" parent="1" source="LZaOQnH5_brjPvSna_9Y-45" target="LZaOQnH5_brjPvSna_9Y-52" edge="1">
          <mxGeometry relative="1" as="geometry" />
        </mxCell>
        <mxCell id="LZaOQnH5_brjPvSna_9Y-45" value="Add dataset" style="rounded=1;whiteSpace=wrap;html=1;arcSize=24;fillColor=#ffffc0;strokeColor=#ff0000;shadow=0;comic=0;labelBackgroundColor=none;fontFamily=Verdana;fontSize=12;fontColor=#000000;align=center;" parent="1" vertex="1">
          <mxGeometry x="465" y="290" width="120" height="60" as="geometry" />
        </mxCell>
        <mxCell id="LZaOQnH5_brjPvSna_9Y-55" value="" style="edgeStyle=orthogonalEdgeStyle;rounded=0;orthogonalLoop=1;jettySize=auto;html=1;" parent="1" source="LZaOQnH5_brjPvSna_9Y-46" target="LZaOQnH5_brjPvSna_9Y-53" edge="1">
          <mxGeometry relative="1" as="geometry" />
        </mxCell>
        <mxCell id="LZaOQnH5_brjPvSna_9Y-46" value="Delete dataset" style="rounded=1;whiteSpace=wrap;html=1;arcSize=24;fillColor=#ffffc0;strokeColor=#ff0000;shadow=0;comic=0;labelBackgroundColor=none;fontFamily=Verdana;fontSize=12;fontColor=#000000;align=center;" parent="1" vertex="1">
          <mxGeometry x="465" y="370" width="120" height="60" as="geometry" />
        </mxCell>
        <mxCell id="LZaOQnH5_brjPvSna_9Y-52" value="" style="rhombus;whiteSpace=wrap;html=1;" parent="1" vertex="1">
          <mxGeometry x="610" y="305" width="30" height="30" as="geometry" />
        </mxCell>
        <mxCell id="LZaOQnH5_brjPvSna_9Y-61" style="edgeStyle=orthogonalEdgeStyle;rounded=0;orthogonalLoop=1;jettySize=auto;html=1;entryX=0.5;entryY=1;entryDx=0;entryDy=0;" parent="1" source="LZaOQnH5_brjPvSna_9Y-53" target="LZaOQnH5_brjPvSna_9Y-62" edge="1">
          <mxGeometry relative="1" as="geometry">
            <mxPoint x="660" y="330" as="targetPoint" />
          </mxGeometry>
        </mxCell>
        <mxCell id="LZaOQnH5_brjPvSna_9Y-53" value="" style="rhombus;whiteSpace=wrap;html=1;" parent="1" vertex="1">
          <mxGeometry x="610" y="385" width="30" height="30" as="geometry" />
        </mxCell>
        <mxCell id="LZaOQnH5_brjPvSna_9Y-56" style="edgeStyle=orthogonalEdgeStyle;rounded=0;orthogonalLoop=1;jettySize=auto;html=1;" parent="1" source="LZaOQnH5_brjPvSna_9Y-52" edge="1">
          <mxGeometry relative="1" as="geometry">
            <mxPoint x="520" y="290" as="targetPoint" />
            <Array as="points">
              <mxPoint x="625" y="270" />
              <mxPoint x="520" y="270" />
              <mxPoint x="520" y="290" />
            </Array>
          </mxGeometry>
        </mxCell>
        <mxCell id="LZaOQnH5_brjPvSna_9Y-57" value="Already exists" style="edgeLabel;html=1;align=center;verticalAlign=middle;resizable=0;points=[];" parent="LZaOQnH5_brjPvSna_9Y-56" vertex="1" connectable="0">
          <mxGeometry x="0.044" y="-1" relative="1" as="geometry">
            <mxPoint x="-8" as="offset" />
          </mxGeometry>
        </mxCell>
        <mxCell id="LZaOQnH5_brjPvSna_9Y-58" style="edgeStyle=orthogonalEdgeStyle;rounded=0;orthogonalLoop=1;jettySize=auto;html=1;entryX=0.457;entryY=0.997;entryDx=0;entryDy=0;entryPerimeter=0;" parent="1" source="LZaOQnH5_brjPvSna_9Y-53" target="LZaOQnH5_brjPvSna_9Y-46" edge="1">
          <mxGeometry relative="1" as="geometry">
            <Array as="points">
              <mxPoint x="625" y="450" />
              <mxPoint x="520" y="450" />
              <mxPoint x="520" y="433" />
              <mxPoint x="520" y="433" />
            </Array>
          </mxGeometry>
        </mxCell>
        <mxCell id="LZaOQnH5_brjPvSna_9Y-59" value="Doesn&#39;t exist" style="edgeLabel;html=1;align=center;verticalAlign=middle;resizable=0;points=[];" parent="LZaOQnH5_brjPvSna_9Y-58" vertex="1" connectable="0">
          <mxGeometry x="0.1621" y="-1" relative="1" as="geometry">
            <mxPoint as="offset" />
          </mxGeometry>
        </mxCell>
        <mxCell id="LZaOQnH5_brjPvSna_9Y-62" value="" style="rounded=1;whiteSpace=wrap;html=1;arcSize=0;" parent="1" vertex="1">
          <mxGeometry x="650" y="310" width="20" height="20" as="geometry" />
        </mxCell>
        <mxCell id="LZaOQnH5_brjPvSna_9Y-67" value="" style="endArrow=classic;html=1;rounded=0;entryX=0;entryY=0.5;entryDx=0;entryDy=0;exitX=1;exitY=0.5;exitDx=0;exitDy=0;" parent="1" source="LZaOQnH5_brjPvSna_9Y-52" target="LZaOQnH5_brjPvSna_9Y-62" edge="1">
          <mxGeometry width="50" height="50" relative="1" as="geometry">
            <mxPoint x="630" y="350" as="sourcePoint" />
            <mxPoint x="680" y="300" as="targetPoint" />
          </mxGeometry>
        </mxCell>
        <mxCell id="LZaOQnH5_brjPvSna_9Y-68" style="edgeStyle=orthogonalEdgeStyle;rounded=0;orthogonalLoop=1;jettySize=auto;html=1;entryX=0.506;entryY=1.006;entryDx=0;entryDy=0;entryPerimeter=0;" parent="1" source="LZaOQnH5_brjPvSna_9Y-62" target="LZaOQnH5_brjPvSna_9Y-10" edge="1">
          <mxGeometry relative="1" as="geometry" />
        </mxCell>
        <mxCell id="LZaOQnH5_brjPvSna_9Y-69" value="&lt;font style=&quot;font-size: 7px;&quot;&gt;Successfull &lt;br style=&quot;font-size: 7px;&quot;&gt;operation &lt;br style=&quot;font-size: 7px;&quot;&gt;msg&lt;/font&gt;" style="edgeLabel;html=1;align=center;verticalAlign=middle;resizable=0;points=[];" parent="LZaOQnH5_brjPvSna_9Y-68" vertex="1" connectable="0">
          <mxGeometry x="-0.4439" relative="1" as="geometry">
            <mxPoint x="22" as="offset" />
          </mxGeometry>
        </mxCell>
        <mxCell id="LZaOQnH5_brjPvSna_9Y-70" value="" style="ellipse;html=1;shape=startState;fillColor=#000000;strokeColor=#ff0000;rounded=1;shadow=0;comic=0;labelBackgroundColor=none;fontFamily=Verdana;fontSize=12;fontColor=#000000;align=center;direction=south;" parent="1" vertex="1">
          <mxGeometry x="20" y="55" width="30" height="30" as="geometry" />
        </mxCell>
      </root>
    </mxGraphModel>
  </diagram>
</mxfile>
